# xmcd
#
# Track frame offsets: 
#        150
#        14802
#        27557
#        39409
#        52519
#        66609
#        81361
#        91583
#        104419
#        114339
#        124945
#        137801
#        150310
#        162840
#        174410
#
# Disc length: 2490 seconds
#
# Revision: 0
# Processed by: cddbd v1.5.2PL0 Copyright (c) Steve Scherf et al.
# Submitted via: ExactAudioCopy v1.3
#
DISCID=be09b80f
DTITLE=Various Artist - Simply Country - CD7
DYEAR=2012
DGENRE=Country
TTITLE0=Loretta Lynn - Coal Miner's Daughter (Live)
TTITLE1=Lynn Anderson - Rose Garden
TTITLE2=Billie Jo Spears - Ease The Want In Me
TTITLE3=Kitty Wells - Makin' Believe
TTITLE4=Rita Remington - Angel Of The Morning
TTITLE5=Lynn Anderson - Faithless Love
TTITLE6=Patsy Cline - Three Cigarettes In An Ashtray
TTITLE7=Charley Pride - Crystal Chandeliers (Live)
TTITLE8=George Jones - Frozen Heart
TTITLE9=Hank Locklin - Please Help Me, I'm Falling
TTITLE10=Jerry Lee Lewis - Turn Around
TTITLE11=Skeeter Davis - (I Can't Help You) I'm Falling Too
TTITLE12=Tex Ritter - The Wayward Wind
TTITLE13=Patsy Cline - Let The Teardrops Fall
TTITLE14=Tex Atchison - You Don't Do Right By Me Anymore
EXTD=
EXTT0=
EXTT1=
EXTT2=
EXTT3=
EXTT4=
EXTT5=
EXTT6=
EXTT7=
EXTT8=
EXTT9=
EXTT10=
EXTT11=
EXTT12=
EXTT13=
EXTT14=
PLAYORDER=
